<?xml version="1.0" standalone="no"?>
<!DOCTYPE svg PUBLIC "-//W3C//DTD SVG 20010904//EN"
 "http://www.w3.org/TR/2001/REC-SVG-20010904/DTD/svg10.dtd">
<svg version="1.0" xmlns="http://www.w3.org/2000/svg"
 width="700.000000pt" height="700.000000pt" viewBox="0 0 700.000000 700.000000"
 preserveAspectRatio="xMidYMid meet">
<metadata>
Created by potrace 1.14, written by Peter Selinger 2001-2017
</metadata>
<g transform="translate(0.000000,700.000000) scale(0.100000,-0.100000)"
fill="#000000" stroke="none">
<path d="M0 3500 l0 -3500 3500 0 3500 0 0 3500 0 3500 -3500 0 -3500 0 0
-3500z m4790 34 l0 -1507 -107 6 c-441 26 -878 275 -1132 647 -260 380 -334
840 -206 1283 152 522 599 936 1131 1046 123 25 140 28 237 30 l77 1 0 -1506z
m-1887 -69 c411 -822 747 -1497 747 -1500 0 -3 -678 -5 -1506 -5 l-1505 0 753
1500 c414 825 755 1500 758 1500 3 0 341 -673 753 -1495z m2957 -221 c118 -27
204 -77 300 -173 142 -142 194 -266 194 -461 0 -131 -15 -194 -72 -305 -53
-102 -183 -231 -282 -278 -99 -47 -185 -67 -295 -67 -187 0 -321 56 -456 190
-70 69 -94 101 -127 170 -44 89 -72 205 -72 290 0 85 28 201 72 290 33 69 57
101 127 170 94 94 185 147 296 174 80 19 234 19 315 0z"/>
</g>
</svg>
