<svg width="24" height="28" viewBox="0 0 24 28" fill="none" xmlns="http://www.w3.org/2000/svg">
<path id="*" d="M12.2 27.12C10.664 27.12 9.44804 25.968 9.44804 24.112C9.44804 21.168 11.432 19.824 11.752 14.896C7.59204 17.648 7.33604 20.016 4.84004 21.488C4.26404 21.808 3.75204 21.936 3.17604 21.936C2.21604 21.936 1.32004 21.424 0.808037 20.592C0.616037 20.144 0.488037 19.696 0.488037 19.184C0.488037 18.224 1.00004 17.328 2.08804 16.688C4.52004 15.28 6.95204 16.304 11.24 14.064C6.82404 11.824 4.58404 12.784 2.08804 11.376C1.00004 10.736 0.488037 9.776 0.488037 8.81601C0.488037 8.36801 0.616037 7.85601 0.808037 7.47201C1.32004 6.64001 2.21604 6.06401 3.17604 6.06401C3.75204 6.06401 4.26404 6.19201 4.84004 6.57601C7.33604 8.04801 7.52804 10.544 11.816 13.232C11.56 8.24001 9.44804 6.83201 9.44804 3.88801C9.44804 2.03201 10.664 0.880005 12.2 0.880005C13.736 0.880005 14.952 2.03201 14.952 3.88801C14.952 6.83201 12.968 8.30401 12.712 13.232C16.872 10.608 17.064 8.04801 19.56 6.57601C20.136 6.19201 20.712 6.06401 21.224 6.06401C22.248 6.06401 23.08 6.64001 23.592 7.47201C23.848 7.85601 23.976 8.36801 23.976 8.81601C23.976 9.776 23.4 10.736 22.312 11.376C19.816 12.784 17.384 11.888 13.16 14.064C17.384 16.176 19.88 15.28 22.312 16.688C23.4 17.328 23.976 18.224 23.976 19.184C23.976 19.696 23.848 20.144 23.592 20.592C23.08 21.424 22.248 21.936 21.224 21.936C20.712 21.936 20.136 21.808 19.56 21.488C17.064 20.016 16.808 17.584 12.712 14.896C13.032 19.824 14.952 21.232 14.952 24.112C14.952 25.968 13.736 27.12 12.2 27.12Z" fill="#504FFB"/>
</svg>
